<svg xmlns="http://www.w3.org/2000/svg" width="50" height="50"><defs><clipPath clipPathUnits="userSpaceOnUse" id="a"><path d="M0 841.9h595.3V0H0z"/></clipPath></defs><g clip-path="url(#a)" transform="matrix(.14912 0 0 -.14912 -19.1 79)"><path d="M292.9 328.7h-48.3A78.5 78.5 0 0 0 214 391a78.8 78.8 0 0 0 78.9 78.6c31.5 0 59-18.9 71.6-45.5l1.8.5c.8.3 1.7 0 2.5-.3.7 2.9 4.6 4.8 7.3 3.8.7 2.3 4.4 4 6.6 3.2.6 1.4 2 2.3 3.3 2.8 1.2.4 2.2.5 3.3-.1l.1.7a105.8 105.8 0 1 1 2.2-81.2 47.8 47.8 0 0 1-22.3 12.6c-1.9-9.2-5.1-16.4-12.5-20.8a81.6 81.6 0 0 0-15.6-16.5zM316 434c-1.5 0-2.7.9-2.7 5.1 0 3 .7 5 2.8 5 1.5 0 2.7-.9 2.7-5.1 0-3-.7-5-2.8-5m-7 5c0-3 1-5.3 2.7-6.6a16.5 16.5 0 0 1-4.9-2.9c-4.6-2.6-10.2-1.3-13.8-6.6a18.4 18.4 0 0 0-3-3.7h-66.7c24.9 61 110.7 61.2 138 2.6a7 7 0 0 1-1.4-3.9c-2 5-7.8 11.3-12.3 13-2.8 1.1-4.4.4-7.4.8-3.6.6-7.2 1-10.6 2.4-3.2.9-5.4-.3-8.3-.6a8.7 8.7 0 0 1 1.9 5.6c0 4.8-2.8 8-7.1 8s-7.2-3.2-7.2-8m4.9-7.7a7 7 0 0 0 3.8-.2c6.4-1.7 12.5-10.3 12.6-16-7.8-1.7-10.2 6.5-15.7 10-1.9 1.1-3.4 1.7-5.6 3.2l1.1 1a8 8 0 0 0 3.8 2M300 434c-1.6 0-2.7.9-2.7 5.1 0 3 .7 5 2.7 5 1.5 0 2.7-.9 2.7-5.1 0-3-.7-5-2.7-5m-7.1 5c0-4.8 2.7-8 7-8s7.2 3.3 7.2 8-2.7 8-7 8-7.2-3.1-7.2-8m-13 3.9l1-2.2c1.4.5 2.5 1 3.6 1.7v-7.7h-3.2v-3.3h9.5v3.3h-2.4V447h-2.7zm-9-2c1.6 0 2.7-1.2 2.7-3.1 0-2.3-1.2-3.7-3-3.7s-3 1.5-3 4l.1 1.6v.2c1.2.7 2.2 1 3.2 1m1.5 11a18.6 18.6 0 0 1-5-3.3 13.7 13.7 0 0 1-3.3-4.8 12.1 12.1 0 0 1-.8-4.4c0-5 3.1-8.4 7.5-8.4a6.8 6.8 0 0 1 7 6.8 6.3 6.3 0 0 1-6.4 6.4 5 5 0 0 1-3.2-1 9.4 9.4 0 0 0 3.1 4.5c1.2 1 2.4 1.6 4.5 2.3h.2l-.9 3a14.7 14.7 0 0 1-2.7-1.1m20.5-34.8c5.2.3 11.6-1 17.3-5.7-2-4.9-13.4-3.2-17.3-2.4-3.5.8-7.2 1-10.4 2.5.8 4.7 6.5 5.4 10.4 5.6m0-10.3c2.5-.2 5-.5 7.4-1.4-1.2-8.4-15-7-20.5-5.8-3.6.8-5.5.3-9.1 2 5 7.4 14.4 6.1 22.2 5.2m0-16.2l-1.4.3a51 51 0 0 0-19.7-12.6c-3-1.1-4-2.2-6.7-3.8-1.5-1-6.1-1-7.9-1.4l-10.7-2.3c-4.5-1-11.9 1.2-13.4-3.1a31.8 31.8 0 0 1 1-3.2c2-.2 3.9.4 6.3.2 2.5-.2 4 1.6 6.8 1.6 2 3.5 13.5 1 16.3 1 6.2.2 9.3-3.6 14.6-5.2 4.5-1.5 8.9-2 13.4-3.2 5.7 6.2 11.4 12.3 18.4 17a69.3 69.3 0 0 0 34.2 11.7c0 1.4-.2 2-.6 3a398.3 398.3 0 0 1-3.7-1.3c-16.3-5.7-31.4-2.6-47 1.3m-.6-33.5c8.4 1.2 17.5-16.3 21.6-22-4.7-1-4.2.2-8.7 2-6.5 2.7-11.1 13.6-14.7 19.6l1.8.4m.7-9.2c1.5-2.5 3.2-5.3 3.9-8.1-4.5-.8-10.2-.6-12.6 4.1-2.6 5.3-4.3 12.8-5.8 15.9 2.9-.7 5.9-.9 7.9-2.4 2.9-2 4.4-5.8 6.6-9.5m0-14.4a97.2 97.2 0 0 1 3.2 3c2.5-.4 5.2 0 7.5-1.1a32.3 32.3 0 0 1 6.6-2.7H292zm38.2-.8c4.3 1 9.1 2 13 4-1.4-1.3-2.8-2.8-4.3-4zm66 40.7a78.8 78.8 0 0 1-25.3 11.3c.4 2.3.3 8.3-.8 12.2 1.7 0 3.6.6 5.2 1.4a4 4 0 0 1 2.1 2.6c1.7-2 5-1.5 7-.1a3.5 3.5 0 0 1 1.4 2c2-1.7 4-.8 6.4 0a3 3 0 0 1 1.9 1.8l1.4-.7a3.5 3.5 0 0 1 1.5-.2 114 114 0 0 0-.8-30.3m-93.3-18.3c6.9 1.5 15.6-10.3 20.1-14.6 1.5-1.4 3.2-2 6.4-5-11.8-4.4-18.2 5-24.4 13.8-1.1 1.7-2.8 3.6-3.2 5.6zm14.9 59.7l1.3.6c-2 2.7-3.8 4.3-6.2 6.6-5.2 4.9-15.5 5.7-19.5-1 2.5-1.3 3.3-1 5.8-1.8 6.3-1.7 11.6-7.2 18.6-4.4m6.5 17.7c-3.1-.7 2.4-5.4 2.9-6.2 2-3.5 5.8-15.7 11.3-14.5 2.8.6-1 11.7-1.4 13.4-1 4.3-8.6 8.3-12.8 7.3m13.5-2.7c.6-2.2 2-4.6 2.3-6.3.9-4.3 1-12.7 7.6-11.3 6.4 1.4.8 12.7-2 15.2-2.2 1.7-5.2 3.5-7.9 2.4m16.5-6.4c-1.2 2.4-3 1.6-3.1-1-.1-2.2.1-4.4.3-6.6.3-2.6 4-2 4.8.1.4 1.4-1.3 6.5-2 7.5m11.8-58.8c.3-3.5-2.5-7.7-5.5-9.4-6.5-3.5-15.1-.2-21.3 2.5 5.7 3.3 13.3 4.4 19.7 5.9 2.6.6 4.2 2.5 7 1.8zm-7.6-15.3c-1.8-4.1-8.9-4.8-12.7-5.7-2.8-.6-15 6.4-15.6 9.2l-.2 1.1c7 1.6 15-1.6 22-2.3 2.9-.4 4.3-.1 7-1.2zm-16.2-9.7c-1.8-2.2-5-2.2-7.7-2.8-6-1.3-12.9 7.8-16.2 12.2a6 6 0 0 0-1.5 3.1c9.6 2.1 19-6.6 26.2-11.5zm5 49.2c-7.1-.4 14.7 7.4 18.6 8.5 1.8-.2 4.4-3.5.1-5.9-3.6-.4-14.1-2.4-18.7-2.6m35.7 34.1l-.2-1.8-1 1.2zm12-9.7l.2.1 1.2-1-1.7-.6.2 1.5M384 430.5c.1.5.7 1.2 1.2 1.2 5.1-3 14.6-8.7 13.5-15.6l-.5-2.8c-.5.4-1.4 1.6-2 1.4.6 6.9-7.4 12.5-12.2 15.8m-6.6-3.1c.5 1.9 2 1.1 3.1.1l-2-.9c-.2.3-.6.5-1 .8m1.3-19.8l1 .3 1.2-1-2.2-.5v1.2m-8.6 16c.4 2.9 2.2 1.3 2.9 1 6.9-4.5 9.5-8.6 8.7-16.6-1.4 1.2-1.5 1.5-3 1-.3 6-3.2 11.5-8.5 14.6zm25.3-17.7l.1 1.3 1.7.6c-.2-1.8-.2-2.7-1.8-1.9m-8.5-1.6c1 5.7 1.7 10.2-1.2 14.4-1 1.6-.7 2-.5 4 2.7-2.2 5-5 5.3-8.8.1-1.3.1-9.6-2-10.6-.7.2-1 .8-1.6 1m-7.7-2.3l1.6.5a3 3 0 0 0-.7-1.4c-.4.2-.7.6-1 1m-10.6-2.3c.6-1 1.5-1.7 2.6-1.5 2.5 3.7 2 10 1 14.2-1.1 3.9-10.8 14-11 4 8 2.8 14-14.3 7.4-16.7m27.3 30.7l1.6-1.3c-.5-.2-2.2-.8-1.2-1.6 6.2-5 7.4-6.6 6.1-15-.6-4.2-.3-6.3-4.3-7.5.4.9.5 2 .6 3 .3 2.8-2.6.2-4 .2-1-.3 0-3.5-2-4.2l-2.3-.7a17 17 0 0 1-5.1 21.2c-.3.2-5.4-1.1-4.2-2.5 0-.3 2.3-2.5 2.7-3 3.7-5 2.8-9.7 1.8-15.5-.5-2-1.8-2.3-3.8-2.5 1.3 4.5-1.2 2.3-4 1.5-1.1-.4-.5-2.3-2-3a13 13 0 0 0-2.9-1c3.4 7.6.6 21.7-8.7 23.6 2.2 1 3.3 1.4 5.4.2 7-4 7.6-9.7 7.8-16.8a.7.7 0 0 1 .8-.8c3.8 1.1 4.7 0 5 3.9.8 7.6-2.7 13-9.4 17a5.5 5.5 0 0 1-1.2.6l1.7.7c1.2 0 3.7-2 4.4-1.8.6 0 4.4 1.6 3.5 2.5a7.3 7.3 0 0 1-2.3 1.9c1 .4 2 .8 2.9.1 4.8-3.2 11.8-8 12-14.5 0-.7-1.3-5.8.4-5 4.8 1.7 3.8.4 4.8 5.6.6 2.6-.2 4.5-1.5 6.7-2.5 4-8.2 7.8-12.2 10.1l.2.1c1 .3 1.7.4 2.7-.2.7-.4 4.1-3 4.8-2.8zm-5 3.8l3.7-2.9-.8-.3-3.1 2zm15-11.6l-2-15-1 .7c1 3.7 2.7 10.9.3 14.2a18.2 18.2 0 0 1-3.9 4.3v.8zm-6.7 6.9l-7.5 5.8 10.6 5.5 19.1-13-14.7-4.2c-2.4 2-5 4.2-7.5 5.9m24.8-2.3l25.3 10.1c-1-4.4-1.2-4.5 3.2-2.4l-2.2-6.1-18-8.6c-.7-.3-.6-2-.7-2.6l-11.5-6zm17 22.5l1.4.5 3-1.7-1.2-.6zm2-6.7l-2.2 1.3.5 1.6 2.3-1.3zm-21.7 5.6l.7 1.4 4.7-3-.7-1.4zm6.4-1.9c4.3-.4 8.3-.5 12.6-.6l-.6-1.5h-1.8v.5c-.7.2-3.6.2-4.7.3l-.2-.5-6 .4zm21.1-2l-4.4.7a334.4 334.4 0 0 0-9.8 5.5c2.8-.4 5-1 7.7 0l8.8-5.3zm-8.8 2.5c-4.6 0-7.8.2-12.4.6l-3.7 2.3c4.5-.4 8-.8 12.6-.9zm7.8-1.4l-3 1.8 1.1.6 3.3-1.9zm0-3.4l-3.7.3.6 1.6 3.5-.5zm2.7-.9l-2.2-.7 1 3 2.2.8zm-10.8 2l9-5-25.4-9.9-19.3 12.7 18.6 5.2 3.3-2.1c.6-.4 6.8-.6 7.7-.6l.2 1c1-.1 2.6 0 3.4-.2.1 0-.2-.9 0-1h2.5m7.5-2.7l-1 .5h1.2zm5-1.2l-1.7-.6-1.5.8 1.8.6zm-.5-3.7l-1.5-.7.7 2.8 1.7.6zm-109.4-67.4c-2.9-14.7-19-16.8-27.7-13a54 54 0 0 0 27.7 13m19.8-1a47 47 0 0 0-19.5-4.7c2 8.4 13.4 6 19.5 4.8m70.9 83.3l1.2-.8H433zm-126.3-46.9a54 54 0 0 1 28 .4l28.5 10.2c4.4 1.5 9-9.7 6-12.1l-1.6-.7c-9.5-3.5-19-7-28.5-10.3-15.2-5.3-30.6-2.7-45.6 1.2 4.1 3.8 8.9 7.8 13.2 11.3m31 4.3a54 54 0 0 0-28.8-2.4 600.8 600.8 0 0 0 4.6 3.7c4 3.3 17.6 4.5 21.9 2a7.3 7.3 0 0 0 2.3-3.3m67.6-1l1.9 15 14.9 4.2-3.6-15.7zm-41.4-20.3c-2 .3 3.2 1.7 4.5 1.4.6-.2.8-1.6-.2-2.2-.7-.3-2.9.6-4.3.8m-195.7-31l-10.5-2.3c-6.2-1.4-6.8-.7-9.8 5.8-.6 1.2-3.4 6.7-1.8 7.7 7.1 1.5 17.5-6 22.1-11.2m16.5 16.2a109.7 109.7 0 0 1 2.2-10c-4 2-8.6 5-11.6 7-1.8 1.3-2 1.2-2.5 3.3a18 18 0 0 0 11.9-.3m6.2-22a108.9 108.9 0 0 1 3.8-8.5 49 49 0 0 0-8.8 7.2zm6-12.7a110.2 110.2 0 0 1 1.8-3c-4.8-1.5-19.1-.3-20.5 6-2.7 12 16.3-1.2 18.7-3m96-.6c-4.7.7-10.8 3.6-15.6 5.3l-2-1.3c-25.5-14.1-57 24.6-41 48.2 2.2 3 4.9 5.8 7.8 8.1 5.4 4.5 14.5 3.6 21 2.6 3.2.3 12.7 9.5 14.1 11.2-14.3 3.3-31.4 7-43.8-3.1a49.5 49.5 0 0 1-15.3-20.7 72.8 72.8 0 0 1 28-54.7H288l5 4.4m-11.7 78.2l-1.8-2-7.2 2zm-40.7 0a49.4 49.4 0 0 1-22.6-21.9 73.4 73.4 0 0 0 4 21.9zm-55.8-57c-9-2.8-23.9 4-29.2 11.2 11.9 4.4 22.1-4.2 31.4-10.6zm-26.3-16.5c.5 2.4 6.6 5.4 7.4 1.7.4-1.9-.1-4.5-.8-6.1-1.5.4-7.1 2.2-6.6 4.4m7-13.4c-2.3-.6-9.4 1.3-10 4-.5 2 .7 4.3 2.8 4.8 3.1.6 11.1-8 7.3-8.8m14.2 6.2c2.5-.6 4.7-1.9 6.9-3-3-.9-5.8-1.9-8 1.3l-1.8 2.4zm83.4 41.6l3.4.8-5.7 2.3c-9.2 3-16.6 10.5-26.6 5.3 4.5-3 8.6-5.1 13.6-7.4 5.7-2.5 9.3-2.3 15.3-1m14.6 8.4c-2.7-2.8-6.5-3.7-10.2-4.3-1.7-.2-8.2 2.6-10 3.4-3.5 1.5-6.8 2.9-10 5 4.5 5.9 13.4 2.6 19.2 1 4.5-1.4 8-1.8 12.1-4zm11.6 9.7c-.3-1.3-2-2.6-3-3.3-5.3-3.4-10.6-1.6-16 .2-3.7 1.2-5.6 1.4-9.3 3.3 6.3 5.3 15.5 3.3 22.9 2.1a35 35 0 0 0 5.6-1.3zm-33.3-44c-5-1-7.8 1.3-11.8 3.8-4.2 2.7-6.6 4-10.4 7.2l6.3 1.4c4 .9 15.5-7 16.7-10.9l.4-1.2zm-8.1 14.6l.7 1.2c11 2.4 20.4-7.4 20-18-5.3-1-12.6 8.7-16.2 12-1.7 1.5-3.5 2-4.8 4.2zm17.5 0c9.6 2 15-14.3 16.5-20.9-8.6-1.9-10.7 8.2-14 13.8l-4 6.7zM248 346.6c1.3 2 17 2.1 20.1-.6 1.5-1.5 3.8-1.7 6-2.6-9.1-5-18.1-2.8-26.2 3.2m-11.2 41.6a49 49 0 0 0 7 7.2c4 3.2 10 3.5 16.4 2.8-2.6-2.8-7.3-4.1-10.5-5-3.6-1-4.8-4.7-8-4.4-1.4.2-3.5-.4-5-.6M395.5 353a42.6 42.6 0 0 1-20 13.5c-20.7 7.8-45.4 6.7-63.2-9.5-2.8-.5-5.6 1.9-8.5 1.7-2.9-.1-5.7.1-8.4.6 16.8 18.2 38.9 29.5 64.4 25.4 16.3-2.6 37-9 46.7-23.7-2.2-4.4-6.4-7-11-8m13.5 6l.7 1.6a49.3 49.3 0 0 1-8.8 9.8 113.3 113.3 0 0 1 1 35.3l.6 1.2 1.6-1c.4-.3 14.2 3.2 15.2 3.9 1.6.8 13.3 6.2 13.5 7.3l.3 2 18 8.6c.2 0 .3.2.3.4l2.8 7.9c.3.7-.6 1-1 1.2 1 3 1 2.6-1.8 4.1.3.7 2 4.2 1.1 4.6-1.2.8-9.3 6.1-10.2 5.8-1.3-.4-2.2-.7-4-.6-1.9 0-5.7 1.6-6 .9v-1.7c-3.3.2-7.6.8-10.6 1-.7.1-1.4-2-1.6-2.6-.2-.4.2-.8.8-1.2l-18.8-5.3a.7.7 0 0 1-.1 0l-9.3-4.8A110 110 0 0 1 184 375.9c-1.7-.2-4-.1-5.1-.3-3.5-.7-7-1.8-10.6-2.3-.9 0-2.9.2-4.7-.3l-11.1-2.4c-4.7-1-12 0-10.8-5.4 4.6-2 3.5-12.7 8.3-15 2.8-1.2 10.1.7 12.7 1.3 1.7.3 3 1.4 4.8 1.8l21 3.6a109.8 109.8 0 0 1 1.5-4.5c-2.3-.4-5.1-1.2-7.1-1.6-5.4-1.9-13-4.8-18.8-2.6l-4.3-.4c-6.5-2-6.9-12-5.6-17.6.9-4 8.6-7 11.9-4.1 1.4 1.2 5 .2 6.7.5 9 2 18 3.3 26.5 7a109.9 109.9 0 0 1 93.6-52.4c45.9-.6 85.3 28.5 101.8 68.5h.6c.6-2.1 2.7-7.8-1-9-1.5-.4-.8-2.8.8-2.3 4.3 1.3 4.2 5 3.5 8.7 1.5-3.7 4.5-11 1.8-14.6-1.2-1.6 1.2-3.4 2.3-1.8 3.8 5 .5 13.2-1.7 18.3 3.8-7 7.4-16.6 5.8-24.5-.4-2.1 2.9-2.7 3.3-.6 1.6 8.5-2 19-6.1 26.5a57 57 0 0 0 10-35c-.1-2.3 3.4-2.6 3.6-.3a61.7 61.7 0 0 1-10.8 37.4c5-6 10.1-13 12.2-20.5.6-2 3.7-1.2 3.2 1-2.1 7.4-7 14.5-12 20.4 3.2-2.9 7.5-5.5 13.2-3.7 1.9.6 1 3.5-.9 2.9-5.9-1.9-10 2.8-13.5 6.5m-176.8 16.4c0 1.4.3 2.7.6 4 3 1 12.1-5 14.1-6.4-4.8-1-10.5-.9-14.7 2.4m-18-49l3.3 2.7a14.8 14.8 0 0 1 1.3 1.3c0-.8.3-1.5.9-2.2 2-2.4 5.4-2.3 8.3.2 3 2.4 3.5 5.5 1.5 7.9a4.1 4.1 0 0 1-2.6 1.5l.4.6-1.8 2.2a12 12 0 0 0-3.2-3.2l-9.7-8.2zm11.1 9.4c.5 0 1.3-.2 1.7-.7 1-1.3.7-2.3-1.3-4-2-1.7-3.4-2-4.3-1-.4.5-.6 1.1-.5 2zm-9.2 3.2a6.9 6.9 0 0 0-3 2.3c-.6 1-.4 1.5.8 2.2l.4.2.4-.6c2-3.3 4.2-4.3 6.7-2.8 2 1.4 2.4 3.4 1 5.7a4.2 4.2 0 0 1-1.9 1.7l-1 .3c.4.6.5 1.5.4 2.3l-2.6.4c0-1.2-.4-1.7-1.5-2.4h-.2l-3.5-2.2a6.2 6.2 0 0 1-1.8-1.4c-.9-1-.8-2.7.3-4.4a8.3 8.3 0 0 1 2.4-2.5 9.1 9.1 0 0 1 2-1.2zm2.4 7.2c.7 0 1.2-.4 1.6-1 .4-.6.2-1.5-.6-2-1.3-.8-2-.3-3.2 1.6h-.1zm-8.3 3.8l7.5 3.3-1.3 3-8-3.6a3 3 0 0 0-1.7 1.4c-.1.3-.2.6-.1 1l-3-.4a2.9 2.9 0 0 1 .9-2 5.6 5.6 0 0 1 2.1-1.1 4 4 0 0 1-1.4-1.2l2-2.3c.4.5 1.5 1.2 3 1.9m-4.3 8.4l8.3 2.2-.8 3-8.7-2.3a3.4 3.4 0 0 0-1.4 1.8c-.2.9 0 1.2 1.6 1.6l7.7 2-.8 3-8.6-2.3c-.7.5-1.3 1.2-1.5 1.8-.2.8 0 1 1.4 1.4l7.9 2.1-.8 3-8.5-2.2c-1.6-.5-2.2-.9-2.6-1.7a3.8 3.8 0 0 1-.2-2.5c.4-1.3 1-2.2 2.5-3a3.3 3.3 0 0 1-.8-3.3c.3-1 1-2 2-2.5a3.2 3.2 0 0 1-1.1-.8l1.5-2.6c.5.5 1.2.8 3 1.3m-9 23.6c.2-2.9 2-4.7 4.3-4.5.8 0 1.7.4 2.2.9.5.4 1 1.5 1 2.3l.2 1.4c.2 1.3.5 2 1.4 2 .8 0 1.4-.6 1.5-1.5a9 9 0 0 0-1.1-4.2l2.4-1a11 11 0 0 1 1 5.1c-.1 3.1-2 5.1-4.6 5a3.3 3.3 0 0 1-2-.9c-.5-.4-1-1-1.2-2.5l-.3-1.5c-.2-1.2-.5-1.6-1.1-1.6-.7 0-1.3.5-1.3 1.4-.1 1 .1 1.9.6 3.1l-2.2 1a9.2 9.2 0 0 1-.8-4.5m0 11.6a36.7 36.7 0 0 0-3.7.3l.7-3.3c.9-.2 1.7-.2 3-.2l-.1-1.3h2l.1 1.2 6.8-.2a4.5 4.5 0 0 1 1.9.1c1 .3 1.8 1.6 1.9 3.2 0 .9-.1 1.7-.5 2.7l-2-.4.3-1.1c0-1.1-.5-1.4-2-1.3l-6.3.2v2l-2 1zm4.1 5.7c-.7 1.4-1 2.7-.9 3.7.2 1.2.7 1.4 2 1.2h.5a8 8 0 0 1 0-.8c-.6-3.9.4-6 3.3-6.4 2.4-.4 4 1 4.4 3.6a4.2 4.2 0 0 1-.4 2.6l-.5.8a3 3 0 0 1 1.7 1.5l-1.7 2c-.8-.9-1.3-1-2.7-.8h-.2l-4 .6c-1.3.2-1.7.2-2.3.1-1.4-.3-2.3-1.5-2.6-3.6a8.3 8.3 0 0 1 .2-3.4c.2-1 .4-1.3.7-2.1zm6.4 4a2 2 0 0 0 .6-1.7c0-.8-.8-1.3-1.8-1.2-1.4.2-1.7 1-1.4 3.2v.2zM196 420.6l4-1.1 1.8-.4a3.3 3.3 0 0 1-1.3-2c-.8-3 1.1-5.7 4.8-6.8 3.7-1 6.6.2 7.4 3.2.3 1 .3 2-.2 3h.7l.8 2.7c-.5 0-1.5 0-4.4.8l-12.3 3.6zm14-4c.3-.3.5-1.1.3-1.7-.5-1.6-1.4-1.9-4-1.2-2.6.8-3.6 1.7-3.2 3.1.2.6.6 1 1.2 1.5zm-4.5 13.6a35.8 35.8 0 0 0-3.2 1.8l-.7-3.3 2.6-1.4-.5-1 2-1 .4 1.1 6.2-2.8a4.5 4.5 0 0 1 1.8-.6c1.1-.2 2.3.7 3 2.2.4.8.6 1.6.6 2.6l-1.9.5c-.1-.6-.1-1-.3-1.2-.4-1-1-1-2.3-.4l-5.7 2.6.8 2-1.5 1.5zm9.7 11l6.7-5.4 2 2.5-7 5.6a3.4 3.4 0 0 0 .6 2.3c.5.6 1 .6 2.1-.4l6.3-5 1.9 2.4-6.9 5.5c0 1 .2 1.9.6 2.3.5.7.8.6 2-.3l6.3-5 2 2.3-6.9 5.5c-1.3 1-2 1.4-2.9 1.2a3.8 3.8 0 0 1-2.1-1.4c-.8-1-1.1-2.1-1-3.7a3.3 3.3 0 0 1-3-1.3 4.2 4.2 0 0 1-1-3.1c-.5.3-.8.4-1.2.4l-1.2-2.7c.6-.1 1.3-.5 2.7-1.7m21.4 14.2c-1.3-1-2.7-.9-4 .6l5.5 4.6-.5.6c-1.7 2-3.1 3-4.7 3a5 5 0 0 1-3.6-1.2 4.8 4.8 0 0 1-1.9-3.8c0-1.6.6-3 2-4.7 2.5-3 5.8-3.4 8.5-1.1a7 7 0 0 1 2.5 4.3l-2.2.6a4.8 4.8 0 0 0-1.6-3m-5.5 2.6c-1 1.3-1.2 2.5-.2 3.3.5.4 1 .5 1.5.4.5-.2 1-.5 1.5-1.2l.1-.1zm7.6 12.1a35.9 35.9 0 0 0-2 3.1l-2.1-2.5 1.5-2.5-1-.7 1.2-1.7 1 .7 4-5.5c.6-1 .7-1.1 1.2-1.5.9-.6 2.4-.5 3.7.5.7.4 1.3 1 1.8 2l-1.4 1.3-.8-.9c-.9-.6-1.4-.5-2.3.8l-3.6 5.1 1.7 1.2-.5 2.2zm7.2 0a6.7 6.7 0 0 0 2.4 3c1 .6 1.5.3 2.2-.9l.2-.4-.6-.3c-3.4-2-4.5-4-3.1-6.6 1.1-2.1 3.1-2.6 5.5-1.3a4.2 4.2 0 0 1 1.8 1.8c.2.2.2.3.4.9.6-.4 1.4-.6 2.2-.5l.6 2.6c-1.2.1-1.6.5-2.3 1.6v.2l-2 3.7a6.2 6.2 0 0 1-1.3 1.8c-1 1-2.7 1-4.5 0a8.3 8.3 0 0 1-2.6-2.3c-.5-.7-.8-1-1.2-1.9zm7-2.6a2.3 2.3 0 0 0-1-1.6c-.7-.4-1.5 0-2 .8-.7 1.2-.2 2 1.7 3l.1.1zm4.8 4.9l5.4 2-1 2.6-5.4-2zm7.6 6.2l2.2-8 3 .9-2.2 8.4c.4.8 1 1.3 1.7 1.5h1v3l-1.2-.1-1-.5a5.5 5.5 0 0 1-1.3-2 4 4 0 0 1-1 1.6l-2.5-1.5c.4-.6 1-1.7 1.3-3.3m8.2 8.5l1.8-14 3.2.3-1 8.8a4 4 0 0 0 2.3 1.4c1 .1 1.3-.3 1.5-1.5l1-8.2 3 .4-1 8.5c-.1 1.4-.2 1.6-.6 2.2-.5 1-1.8 1.6-3.3 1.4a5.4 5.4 0 0 1-3.3-1.8l-.1 1-.3 2.5a16.5 16.5 0 0 1-.6 3l-3.1-1.2c.2-.5.4-1.6.5-2.8m20-10.7c-1.6 0-2.6 1-2.6 3l7 .2v.7c0 2.6-.5 4.2-1.7 5.4a5 5 0 0 1-3.5 1.2 4.8 4.8 0 0 1-3.9-1.7c-1-1.2-1.5-2.7-1.4-5 0-3.8 2.4-6.2 5.9-6.2a7 7 0 0 1 4.6 1.8l-1.3 2a4.8 4.8 0 0 0-3-1.4m-2.7 5.5c0 1.7.6 2.6 1.9 2.7.6 0 1-.3 1.4-.7.3-.5.4-1 .4-1.9v-.1zm9.3-7.8l3.2-.4 1.5 12.5-3.3-.1zm1.5 15.6a2 2 0 0 1 1.7-2.2 2 2 0 0 1 2.3 1.7 2 2 0 0 1-1.7 2.2 2 2 0 0 1-2.3-1.7m6.9-7.3l-2-8.7 3.1-.7 2 8.4c.8.5 1.8.7 2.4.6.8-.2 1-.6.6-2l-1.8-7.8 3.1-.7 2 8.7c.2.8.3 1.3.2 1.8-.1 1.1-1.1 2.1-2.5 2.4a5 5 0 0 1-2.2 0l-1.6-.6-.1 1.6-3-.1a9 9 0 0 0-.2-3m11.5-6.8l5.5-1.8.8 2.6-5.4 1.8zm10.7-.3l-4.2-7.5 2.8-1.5 4.3 7.8c1 .2 1.8.1 2.3-.2.8-.4.8-.8 0-2.2l-3.8-7 2.7-1.4 4.3 7.7c.9.2 1.8.1 2.3-.1.8-.4.8-.8 0-2l-3.9-7.2 2.8-1.5 4.2 7.7c.8 1.4 1 2.2.6 3a3.8 3.8 0 0 1-1.7 1.9 5 5 0 0 1-3.8.3 3.3 3.3 0 0 1-1.8 2.8c-1 .6-2.1.7-3.3.4l.3 1.3-3 .7c0-.7-.2-1.4-1.1-3m17.8-10.8c1.5-.1 2.8-.5 3.6-1 1-.8.9-1.3 0-2.4l-.3-.4-.5.5c-3.1 2.4-5.5 2.5-7.3.3-1.5-2-1.2-4 1-5.7.8-.6 1.6-1 2.3-1h1c-.1-.6 0-1.4.5-2.1l2.5.5c-.3 1-.1 1.6.7 2.7v.1l2.7 3.2a6.2 6.2 0 0 1 1.2 1.9c.4 1.4-.2 2.9-1.8 4.1a8.3 8.3 0 0 1-3.1 1.5c-.9.3-1.3.4-2.2.5zm.3-7.6c-.7 0-1.4 0-1.9.4-.6.5-.7 1.4-.1 2.1.9 1.2 1.7 1 3.5-.3l.1-.1zm2.8-6.3l2.3-2.3 9 8.7-2.6 2zm11 11.1a2 2 0 0 1 0-2.8 2 2 0 0 1 2.8 0c.8.7.8 2 0 2.8a2 2 0 0 1-2.8 0m0-10l-6.9-5.7 2-2.5 6.8 5.5c1-.2 1.9-.5 2.3-1 .5-.7.3-1.1-.7-2l-6.3-5 2-2.5 7 5.6c.6.5 1 1 1.2 1.3.6 1 .4 2.4-.5 3.4a5 5 0 0 1-1.8 1.4c-.5.3-.7.3-1.6.6.4.3.7.7 1 1.3l-2.5 1.7a8.8 8.8 0 0 0-2-2.2m-63.4-144.7a18.5 18.5 0 0 0 4.8-.4 3 3 0 0 0 1.6-2.7c0-3.3-3.4-5.6-8.4-5.6-1.1 0-1.6 0-2.7.3l1.1-3.4c1.4-.2 1.9-.2 3-.2 7.5 0 12.7 3.5 12.7 8.5 0 2.5-1.6 4.5-4.3 5.4a5.5 5.5 0 0 1 3.7 5.3c0 3.6-3.3 6.3-7.8 6.3a14.1 14.1 0 0 1-8.5-3l2.6-3a8.4 8.4 0 0 0 5.3 2c2 0 3-1.2 3-2.8 0-1.9-1.3-2.8-4-2.8h-2.2l-.2.1v-4zm-13.3-1.3c-1.2 0-2.7 0-3.5-.2l1 .5c1.5.8 3.6 2 5 3 1.9 1.4 3.3 3.1 3.3 5.8 0 3.5-2.7 5.9-7 5.9-3.7 0-6.5-1.3-9-3.6l2.8-3c2 1.7 3.3 2.3 4.9 2.3 1.7 0 2.9-.8 2.9-2.4 0-1.7-1.3-3.3-6.3-6-2-1.3-2.4-1.3-3.7-2v-4.3h15l1 4z" fill="#f47216" fill-rule="evenodd"/></g><g style="line-height:1;text-align:center"><path d="M4 38.8c-.5 0-1 .3-1.3.8-.2.3-.2.6-.2 1a1.8 1.8 0 0 0 .4 1.3c.3.3.6.5 1.1.5.4 0 .7-.1 1-.4l-.4-.4a.9.9 0 0 1-.5.2.7.7 0 0 1-.7-.4 2 2 0 0 1-.2-.9l.2-.9a.7.7 0 0 1 .6-.3l.6.2.3-.4a1.4 1.4 0 0 0-.9-.3zm1.3.6v2.9h.6v-1.8l.6-.2c.2 0 .2 0 .2.3v1.7h.7v-1.8-.4c-.2-.2-.4-.4-.7-.4a1 1 0 0 0-.8.3v-.7-.7l-.7.2v.6zm2.9 1.1l.7-.2c.3 0 .3 0 .3.3v.1h-.1c-.8 0-1.3.3-1.3 1 0 .4.4.7 1 .7l.4-.1a1 1 0 0 0 .2-.2.7.7 0 0 0 .3.3l.4-.4c-.2-.1-.2-.2-.2-.5v-.9-.4c-.2-.3-.5-.5-.9-.5-.2 0-.4 0-.7.2L8 40zm1 1.2a.5.5 0 0 1-.4.2c-.1 0-.2-.1-.2-.3 0-.3.1-.4.6-.4zm1-.7c0 .8.5 1.4 1.2 1.4.4 0 .7-.2.9-.4.2-.2.3-.5.3-1 0-.4-.1-.7-.3-.9a1 1 0 0 0-.9-.4c-.7 0-1.1.6-1.1 1.3zm1.5-.6l.1.6c0 .6 0 .9-.4.9a.4.4 0 0 1-.3-.2V41v-.5a.4.4 0 0 1 .3-.3c.2 0 .3 0 .3.2zm2.2-.7c-.6 0-1 .3-1 .8l.1.5.5.2h.3c.2.1.4.2.4.4s-.2.3-.4.3c-.3 0-.6-.2-.8-.3l-.2.5c.3.2.7.3 1 .3.6 0 1-.4 1-.9a.7.7 0 0 0 0-.4l-.6-.3H14c-.2-.1-.3-.2-.3-.4 0-.1.1-.2.3-.2.2 0 .4 0 .6.2l.3-.5-1-.2zm4.4-.9c-.5 0-1 .3-1.3.8l-.2 1a1.8 1.8 0 0 0 .4 1.3c.3.3.7.5 1.1.5.4 0 .7-.1 1-.4l-.3-.4a.9.9 0 0 1-.6.2.7.7 0 0 1-.7-.4l-.1-.9c0-.4 0-.7.2-.9a.7.7 0 0 1 .6-.3l.5.2.3-.4a1.4 1.4 0 0 0-.9-.3zm1.1 2.2c0 .8.5 1.4 1.2 1.4.4 0 .6-.2.8-.4.2-.2.3-.5.3-1 0-.4 0-.7-.3-.9a1 1 0 0 0-.8-.4c-.7 0-1.2.6-1.2 1.3zm1.5-.6v.6c0 .6 0 .9-.3.9a.4.4 0 0 1-.3-.2l-.1-.7v-.5a.4.4 0 0 1 .4-.3s.2 0 .3.2zm1.3.1v1.8h.6v-1.8a.7.7 0 0 1 .5-.2c.1 0 .2 0 .2.4v1.6h.6v-1.8l.5-.2c.1 0 .2 0 .2.3v1.7h.6v-1.8c0-.4 0-.5-.2-.6a.8.8 0 0 0-.5-.2c-.3 0-.5.1-.7.4a.8.8 0 0 0-.1-.2.7.7 0 0 0-.5-.2.9.9 0 0 0-.6.3.6.6 0 0 0-.1-.3l-.6.2v.6zm3.9 0v2.9l.6-.2v-1a1 1 0 0 0 .5.2 1 1 0 0 0 .7-.3c.3-.3.4-.6.4-1.1 0-.6-.2-1-.5-1.1a1 1 0 0 0-.5-.2c-.3 0-.5.1-.6.3a1.1 1.1 0 0 0 0-.3l-.7.1v.7zm.6 0a.6.6 0 0 1 .4-.2c.2 0 .3 0 .4.2v.5c0 .6-.1.8-.4.8a.6.6 0 0 1-.4-.1zm2 1l.1.5c.1.2.4.4.8.4.3 0 .5-.1.6-.3a.6.6 0 0 0 .3.3l.4-.3a.7.7 0 0 1-.1-.5v-1.9l-.7.1v1.8c0 .1-.2.3-.4.3a.3.3 0 0 1-.2-.2v-2l-.7.1zm3.4-1.7V39l-.6.2v.6h-.3v.4h.2V42c.2.2.4.4.8.4.1 0 .3 0 .5-.2V42h-.3c-.2 0-.3 0-.3-.4v-1.3h.4l.2-.4zm2 2c-.4 0-.6-.1-.6-.5h1.4V41c0-.5 0-.9-.3-1.1a1 1 0 0 0-.7-.3 1 1 0 0 0-.8.4c-.2.2-.3.5-.3 1 0 .8.4 1.3 1.1 1.3.4 0 .7-.1 1-.4l-.2-.4a1 1 0 0 1-.7.3zm-.6-1c0-.4.1-.6.4-.6.1 0 .2 0 .3.2v.3h-.7zm2-.2v1.7h.6v-1.8l.4-.2h.2l.2-.5a.5.5 0 0 0-.3 0h-.2a1.1 1.1 0 0 0-.4.3.8.8 0 0 0 0-.4l-.7.2.1.7zm4.6-1.8c-.6 0-1 .3-1.3.8-.2.3-.3.6-.3 1A1.8 1.8 0 0 0 39 42c.2.3.6.5 1 .5.5 0 .8-.1 1-.4l-.3-.4a.9.9 0 0 1-.6.2.7.7 0 0 1-.6-.4 2 2 0 0 1-.2-.9c0-.4 0-.7.2-.9a.7.7 0 0 1 .6-.3l.6.2.3-.4a1.4 1.4 0 0 0-1-.3zm1.2 0v2.6l.1.6c0 .2.3.4.6.4l.4-.1-.1-.4h-.1-.1v-2.6a3.8 3.8 0 0 0-.1-.7zm1.4 2.6v.6c.1.2.4.4.8.4.3 0 .5-.1.7-.3a.6.6 0 0 0 .2.3l.4-.3a.7.7 0 0 1-.1-.5v-1.9l-.7.1v1.8c0 .1-.2.3-.4.3a.3.3 0 0 1-.2-.2v-2l-.7.1zm2.6-2.6v3.5h.6a.4.4 0 0 0 0-.2.7.7 0 0 0 .6.3.8.8 0 0 0 .6-.2c.3-.3.4-.7.4-1.2 0-.8-.4-1.3-1-1.3-.2 0-.4 0-.5.2v-.8-.4zm1 1.5c.3 0 .4 0 .4.3v1l-.3.2-.4-.2v-1.1l.4-.2zm-36.5 7h.8a6.3 6.3 0 0 0 .5 0 1.2 1.2 0 0 0 .9-.6c.2-.3.3-.7.3-1.1 0-.7-.1-1.1-.5-1.4a1.2 1.2 0 0 0-.7-.4 10 10 0 0 0-.6 0h-.7zm1-3c.3 0 .4.2.6.4l.1 1c0 .6-.2 1-.6 1h-.4v-2.3zm2.2 1.2c.2-.2.5-.3.7-.3.2 0 .3 0 .3.4h-.2c-.8 0-1.2.3-1.2 1 0 .4.3.7.9.7a.9.9 0 0 0 .5-.1l.1-.1a.7.7 0 0 0 .4.3l.4-.4c-.2-.2-.3-.3-.3-.6v-.8-.5c-.1-.3-.4-.4-.8-.4l-.7.1-.4.2zm1 1.2a.5.5 0 0 1-.4.1c-.1 0-.3 0-.3-.3s.2-.4.6-.4zm1.3-1.1v1.6h.6v-1.8a.5.5 0 0 1 .4-.2h.2l.2-.5a.5.5 0 0 0-.2 0 .6.6 0 0 0-.3 0 1.1 1.1 0 0 0-.3.3.8.8 0 0 0-.1-.3l-.6.1v.8zm1.6-.1v1.7h.7v-1.8a.7.7 0 0 1 .4-.2c.2 0 .2 0 .2.4v1.6h.7v-1.8l.4-.2c.2 0 .2 0 .2.4v1.6h.6v-1.8l-.1-.6a.8.8 0 0 0-.5-.1c-.3 0-.5 0-.8.3a.8.8 0 0 0 0-.1.7.7 0 0 0-.6-.2.9.9 0 0 0-.6.2.6.6 0 0 0 0-.2l-.7.1.1.7zm4.7-.9c-.6 0-1 .4-1 .9 0 .1 0 .3.2.4a.9.9 0 0 0 .5.3h.2c.3 0 .4.2.4.3 0 .2-.1.3-.3.3-.3 0-.6-.1-.8-.3l-.3.5a2.3 2.3 0 0 0 1 .3c.7 0 1.1-.3 1.1-.9a.7.7 0 0 0-.1-.4l-.5-.3h-.3c-.3-.1-.3-.2-.3-.3 0-.2 0-.3.3-.3l.6.2.2-.4c-.2-.1-.5-.3-.9-.3zm2.2.1V44l-.7.2v.6h-.3v.4h.3V47c.1.3.4.4.7.4l.6-.1-.1-.4H24c-.2 0-.3 0-.3-.4v-1.3h.5l.1-.4zm1 .8c.2-.2.5-.3.7-.3.2 0 .3 0 .3.4h-.2c-.8 0-1.2.3-1.2 1 0 .4.3.7.9.7a.9.9 0 0 0 .5-.1l.2-.1a.7.7 0 0 0 .3.3l.4-.4c-.2-.2-.3-.3-.3-.6v-.8-.5c-.1-.3-.4-.4-.8-.4l-.7.1a1.9 1.9 0 0 0-.4.2zm1 1.2a.5.5 0 0 1-.4.2c-.1 0-.3-.2-.3-.4 0-.3.2-.4.6-.4zm2.6-3.1v1.2a.7.7 0 0 0-.4-.1c-.6 0-1 .5-1 1.3s.3 1.3 1 1.3a.8.8 0 0 0 .6-.2v.1h.6l-.1-.9v-2.6zm0 3a.5.5 0 0 1-.3.1c-.3 0-.4-.1-.4-.7 0-.5 0-.8.4-.8a.5.5 0 0 1 .3.2zm2-1.9V44l-.6.2v.6h-.3v.4h.3V47c0 .3.4.4.7.4l.5-.1v-.4h-.3c-.2 0-.3 0-.3-.4v-1.3h.4l.2-.4zm3.6 2.1c-.3 0-.5-.2-.5-.6h1.4V46c0-.5 0-.8-.3-1a1 1 0 0 0-.7-.3 1 1 0 0 0-.8.3c-.2.2-.3.6-.3 1 0 .8.4 1.3 1.1 1.3.4 0 .7-.1 1-.3l-.3-.4a1 1 0 0 1-.6.2zm-.5-1.1c0-.4.1-.6.4-.6.1 0 .2 0 .3.2v.4h-.7zm1.8 1.2a.4.4 0 0 0 .4.4.4.4 0 0 0 .5-.4.4.4 0 0 0-.5-.5.4.4 0 0 0-.4.5zm2.2.4h.6l1.2-3.5h-.7l-.6 1.7-.1.4v.3l-.1-.2-.1-.4-.6-1.8h-.7zm2-.4a.4.4 0 0 0 .5.4.4.4 0 0 0 .4-.4.4.4 0 0 0-.5-.5.4.4 0 0 0-.4.5z" style="line-height:1;-inkscape-font-specification:Meta-Bold;text-align:center" aria-label="Chaos Computer Club Darmstadt e.V." font-weight="700" font-size="33.1" font-family="Meta-Bold" text-anchor="middle" fill="#f47216"/></g></svg>