<?xml version="1.0" encoding="utf-8"?>
<!-- Generator: Adobe Illustrator 15.0.2, SVG Export Plug-In . SVG Version: 6.00 Build 0)  -->
<!DOCTYPE svg PUBLIC "-//W3C//DTD SVG 1.1//EN" "http://www.w3.org/Graphics/SVG/1.1/DTD/svg11.dtd">
<svg version="1.1" id="Layer_1" xmlns="http://www.w3.org/2000/svg" xmlns:xlink="http://www.w3.org/1999/xlink" x="0px" y="0px"
	 width="686px" height="200px" viewBox="0 0 686 200" enable-background="new 0 0 686 200" xml:space="preserve">
<g>
	<polygon fill="#26224C" points="186.155,37.5 165.513,52.662 165.513,84.378 186.155,113.791 	"/>
	<polygon fill="#26224C" points="186.155,150.565 106.797,37.5 97.604,44.273 97.604,162.5 118.247,147.338 118.247,88.79 
		169.865,162.5 192.445,162.5 208.736,150.565 	"/>
	<polygon fill="#00ADEE" points="118.247,88.79 118.247,147.338 97.604,162.5 120.186,162.5 140.829,147.338 140.829,121.038 	"/>
	<polygon fill="#00ADEE" points="186.155,113.791 186.155,37.5 208.736,37.5 208.736,150.565 186.155,150.565 106.797,37.5 
		132.605,37.5 	"/>
	<g>
		<path fill="#26224C" d="M327.328,76.416l32.306,41.035V76.416h7.856v55.561h-6.588L327.725,89.83v42.146h-7.856V76.416H327.328z"
			/>
		<path fill="#26224C" d="M438.214,76.416v7.222h-32.542v16.668h28.972v7.302h-28.972v17.146h32.939v7.224h-40.955V76.416H438.214z"
			/>
		<path fill="#26224C" d="M463.299,104.195c0-15.715,12.065-28.733,28.891-28.733c16.827,0,28.893,13.019,28.893,28.733
			c0,15.716-12.065,28.733-28.893,28.733C475.364,132.929,463.299,119.911,463.299,104.195z M512.748,104.195
			c0-12.143-8.495-21.351-20.559-21.351c-12.062,0-20.557,9.208-20.557,21.351s8.495,21.351,20.557,21.351
			C504.253,125.546,512.748,116.338,512.748,104.195z"/>
		<path fill="#26224C" d="M545.768,123.721l4.919-5.556c5.482,4.922,10.559,7.539,18.021,7.539c6.667,0,11.43-3.412,11.43-8.492
			c0-4.524-2.54-6.904-13.416-9.682c-12.617-3.256-18.968-7.621-18.968-16.51c0-9.208,8.415-15.559,19.206-15.559
			c8.018,0,13.892,2.621,19.606,7.144l-4.603,5.954c-5.24-4.127-9.686-5.873-15.081-5.873c-6.114,0-10.798,3.016-10.798,7.779
			c0,4.603,2.938,7.142,14.21,9.921c12.144,2.936,18.101,7.777,18.101,16.35c0,10-8.576,16.192-19.768,16.192
			C559.736,132.929,552.356,129.675,545.768,123.721z"/>
	</g>
</g>
</svg>
