<?xml version="1.0" encoding="UTF-8" standalone="no"?><!DOCTYPE svg PUBLIC "-//W3C//DTD SVG 1.1//EN" "http://www.w3.org/Graphics/SVG/1.1/DTD/svg11.dtd"><svg width="100%" height="100%" viewBox="0 0 229 90" version="1.1" xmlns="http://www.w3.org/2000/svg" xmlns:xlink="http://www.w3.org/1999/xlink" xml:space="preserve" xmlns:serif="http://www.serif.com/" style="fill-rule:evenodd;clip-rule:evenodd;stroke-linejoin:round;stroke-miterlimit:1.41421;"><g><path d="M149.517,44c-0.716,0 -1.315,-0.235 -1.796,-0.705c-0.481,-0.47 -0.721,-1.069 -0.721,-1.795c0,-0.726 0.24,-1.325 0.721,-1.795c0.481,-0.47 1.08,-0.705 1.796,-0.705c0.716,0 1.309,0.235 1.778,0.705c0.47,0.47 0.705,1.069 0.705,1.795c0,0.726 -0.235,1.325 -0.705,1.795c-0.469,0.47 -1.062,0.705 -1.778,0.705Z" style="fill:#3fba83;"/><path d="M100.505,43.639l-6.505,-20.912l3.922,0l2.934,10.52c0.34,1.193 0.643,2.323 0.908,3.389c0.266,1.066 0.58,2.206 0.941,3.421l0.127,0c0.362,-1.215 0.675,-2.355 0.941,-3.421c0.266,-1.066 0.558,-2.196 0.877,-3.389l2.902,-10.52l3.794,0l-6.473,20.912l-4.368,0Zm17.697,0.383c-1.68,0 -2.902,-0.538 -3.667,-1.614c-0.766,-1.077 -1.148,-2.617 -1.148,-4.621l0,-9.848l3.667,0l0,9.368c0,1.301 0.191,2.217 0.574,2.75c0.382,0.533 0.999,0.8 1.849,0.8c0.68,0 1.281,-0.171 1.802,-0.512c0.52,-0.341 1.078,-0.895 1.674,-1.663l0,-10.743l3.667,0l0,15.7l-2.998,0l-0.287,-2.303l-0.095,0c-0.681,0.81 -1.419,1.461 -2.216,1.951c-0.798,0.49 -1.738,0.735 -2.822,0.735Zm19.769,0c-1.084,0 -2.094,-0.186 -3.029,-0.559c-0.935,-0.373 -1.754,-0.912 -2.455,-1.615c-0.702,-0.703 -1.249,-1.561 -1.643,-2.574c-0.393,-1.013 -0.589,-2.169 -0.589,-3.469c0,-1.279 0.202,-2.431 0.605,-3.454c0.404,-1.023 0.941,-1.886 1.611,-2.59c0.669,-0.703 1.44,-1.247 2.311,-1.63c0.872,-0.384 1.765,-0.576 2.679,-0.576c1.063,0 1.998,0.181 2.806,0.544c0.808,0.362 1.483,0.874 2.025,1.534c0.542,0.661 0.951,1.45 1.227,2.367c0.277,0.916 0.415,1.918 0.415,3.005c0,0.363 -0.016,0.704 -0.048,1.023c-0.032,0.32 -0.069,0.576 -0.112,0.768l-9.948,0c0.17,1.407 0.664,2.489 1.483,3.245c0.818,0.757 1.865,1.135 3.14,1.135c0.681,0 1.313,-0.101 1.898,-0.303c0.584,-0.203 1.163,-0.485 1.737,-0.848l1.244,2.303c-0.744,0.49 -1.573,0.895 -2.487,1.215c-0.914,0.319 -1.871,0.479 -2.87,0.479Zm-4.177,-9.72l6.951,0c0,-1.215 -0.26,-2.169 -0.781,-2.862c-0.521,-0.693 -1.323,-1.039 -2.407,-1.039c-0.936,0 -1.754,0.33 -2.456,0.991c-0.701,0.661 -1.137,1.631 -1.307,2.91Zm21.172,15.924c-0.574,0 -1.068,-0.043 -1.482,-0.128c-0.415,-0.086 -0.771,-0.182 -1.068,-0.288l0.701,-2.75c0.213,0.064 0.43,0.123 0.654,0.176c0.223,0.053 0.451,0.08 0.685,0.08c0.702,0 1.175,-0.24 1.419,-0.72c0.245,-0.479 0.367,-1.177 0.367,-2.094l0,-16.563l3.699,0l0,16.499c0,0.831 -0.085,1.599 -0.255,2.302c-0.171,0.704 -0.452,1.317 -0.845,1.839c-0.394,0.522 -0.909,0.927 -1.547,1.215c-0.638,0.288 -1.414,0.432 -2.328,0.432Zm3.125,-25.037c-0.637,0 -1.174,-0.192 -1.61,-0.576c-0.436,-0.383 -0.654,-0.884 -0.654,-1.503c0,-0.618 0.218,-1.124 0.654,-1.518c0.436,-0.395 0.973,-0.592 1.61,-0.592c0.659,0 1.207,0.197 1.642,0.592c0.436,0.394 0.654,0.9 0.654,1.518c0,0.619 -0.218,1.12 -0.654,1.503c-0.435,0.384 -0.983,0.576 -1.642,0.576Zm10.873,18.833c-1.084,0 -2.152,-0.208 -3.204,-0.623c-1.052,-0.416 -1.961,-0.933 -2.726,-1.551l1.721,-2.366c0.702,0.554 1.398,0.986 2.089,1.295c0.691,0.309 1.44,0.463 2.248,0.463c0.85,0 1.477,-0.175 1.881,-0.527c0.404,-0.352 0.606,-0.805 0.606,-1.359c0,-0.32 -0.096,-0.602 -0.287,-0.847c-0.191,-0.246 -0.446,-0.464 -0.765,-0.656c-0.319,-0.192 -0.68,-0.368 -1.084,-0.528c-0.404,-0.159 -0.808,-0.325 -1.212,-0.495c-0.51,-0.192 -1.031,-0.416 -1.562,-0.672c-0.532,-0.255 -1.005,-0.565 -1.419,-0.927c-0.415,-0.362 -0.755,-0.783 -1.021,-1.263c-0.265,-0.48 -0.398,-1.05 -0.398,-1.711c0,-1.385 0.51,-2.515 1.53,-3.389c1.021,-0.874 2.413,-1.311 4.177,-1.311c1.085,0 2.062,0.192 2.934,0.576c0.871,0.383 1.626,0.82 2.264,1.311l-1.69,2.238c-0.553,-0.405 -1.111,-0.73 -1.674,-0.975c-0.563,-0.246 -1.153,-0.368 -1.77,-0.368c-0.786,0 -1.366,0.165 -1.738,0.495c-0.372,0.331 -0.558,0.741 -0.558,1.231c0,0.32 0.091,0.592 0.271,0.816c0.181,0.224 0.42,0.421 0.718,0.591c0.297,0.171 0.643,0.331 1.036,0.48c0.393,0.149 0.803,0.298 1.228,0.448c0.531,0.192 1.063,0.41 1.594,0.655c0.531,0.245 1.015,0.549 1.451,0.911c0.436,0.363 0.786,0.805 1.052,1.327c0.266,0.523 0.399,1.146 0.399,1.871c0,0.682 -0.133,1.316 -0.399,1.903c-0.266,0.586 -0.654,1.097 -1.164,1.534c-0.51,0.437 -1.148,0.784 -1.913,1.04c-0.765,0.255 -1.637,0.383 -2.615,0.383Zm-72.19,28.594l0,-20.912l12.595,0l0,3.134l-8.896,0l0,5.915l7.589,0l0,3.134l-7.589,0l0,8.729l-3.699,0Zm15.943,0l0,-15.7l3.029,0l0.255,2.782l0.128,0c0.553,-1.023 1.222,-1.806 2.009,-2.35c0.786,-0.544 1.594,-0.815 2.423,-0.815c0.744,0 1.339,0.106 1.786,0.319l-0.638,3.198c-0.276,-0.085 -0.531,-0.149 -0.765,-0.192c-0.234,-0.043 -0.521,-0.064 -0.861,-0.064c-0.617,0 -1.265,0.24 -1.945,0.72c-0.68,0.479 -1.265,1.316 -1.754,2.51l0,9.592l-3.667,0Zm15.688,0.384c-1.382,0 -2.498,-0.421 -3.348,-1.263c-0.85,-0.842 -1.275,-1.956 -1.275,-3.341c0,-0.832 0.175,-1.573 0.526,-2.223c0.351,-0.65 0.903,-1.209 1.658,-1.678c0.755,-0.469 1.711,-0.864 2.87,-1.184c1.158,-0.319 2.545,-0.564 4.161,-0.735c-0.021,-0.405 -0.08,-0.794 -0.176,-1.167c-0.095,-0.373 -0.255,-0.704 -0.478,-0.991c-0.223,-0.288 -0.515,-0.512 -0.877,-0.672c-0.361,-0.16 -0.808,-0.24 -1.339,-0.24c-0.765,0 -1.515,0.15 -2.248,0.448c-0.733,0.298 -1.451,0.661 -2.152,1.087l-1.339,-2.462c0.871,-0.554 1.849,-1.034 2.933,-1.439c1.084,-0.405 2.253,-0.607 3.508,-0.607c1.955,0 3.417,0.581 4.384,1.742c0.967,1.162 1.451,2.841 1.451,5.036l0,9.305l-3.029,0l-0.256,-1.726l-0.127,0c-0.702,0.597 -1.451,1.097 -2.248,1.502c-0.797,0.405 -1.663,0.608 -2.599,0.608Zm1.18,-2.878c0.638,0 1.217,-0.149 1.738,-0.447c0.521,-0.299 1.079,-0.725 1.674,-1.279l0,-3.518c-1.063,0.128 -1.956,0.299 -2.679,0.512c-0.722,0.213 -1.307,0.453 -1.753,0.719c-0.447,0.267 -0.766,0.571 -0.957,0.912c-0.191,0.341 -0.287,0.703 -0.287,1.087c0,0.703 0.213,1.215 0.638,1.535c0.425,0.319 0.967,0.479 1.626,0.479Zm11.479,2.494l0,-15.7l3.029,0l0.255,2.111l0.128,0c0.701,-0.682 1.461,-1.269 2.28,-1.759c0.818,-0.49 1.769,-0.735 2.854,-0.735c1.679,0 2.901,0.538 3.666,1.614c0.766,1.077 1.148,2.617 1.148,4.621l0,9.848l-3.667,0l0,-9.368c0,-1.301 -0.191,-2.217 -0.574,-2.75c-0.382,-0.533 -1.009,-0.8 -1.881,-0.8c-0.68,0 -1.281,0.165 -1.801,0.496c-0.521,0.33 -1.111,0.815 -1.77,1.455l0,10.967l-3.667,0Zm17.856,0l0,-22.574l3.603,0l0,14.101l0.096,0l5.803,-7.227l4.018,0l-5.357,6.395l5.899,9.305l-3.986,0l-4.017,-6.81l-2.456,2.813l0,3.997l-3.603,0Zm17.283,0l0,-12.79l-2.105,0l0,-2.75l2.105,-0.16l0,-1.63c0,-0.81 0.095,-1.562 0.287,-2.255c0.191,-0.692 0.499,-1.289 0.924,-1.79c0.425,-0.501 0.962,-0.89 1.611,-1.167c0.648,-0.277 1.44,-0.416 2.375,-0.416c0.553,0 1.079,0.053 1.578,0.16c0.5,0.106 0.93,0.234 1.292,0.384l-0.702,2.749c-0.574,-0.255 -1.148,-0.383 -1.722,-0.383c-1.318,0 -1.976,0.884 -1.976,2.654l0,1.694l3.061,0l0,2.91l-3.061,0l0,12.79l-3.667,0Zm14.125,0.384c-1.679,0 -2.901,-0.538 -3.667,-1.615c-0.765,-1.076 -1.148,-2.616 -1.148,-4.62l0,-9.849l3.667,0l0,9.369c0,1.301 0.192,2.217 0.574,2.75c0.383,0.533 0.999,0.799 1.85,0.799c0.68,0 1.28,-0.17 1.801,-0.511c0.521,-0.341 1.079,-0.895 1.674,-1.663l0,-10.744l3.667,0l0,15.7l-2.997,0l-0.287,-2.302l-0.096,0c-0.68,0.81 -1.419,1.46 -2.216,1.951c-0.797,0.49 -1.738,0.735 -2.822,0.735Zm13.074,-0.384l0,-15.7l3.029,0l0.255,2.782l0.127,0c0.553,-1.023 1.223,-1.806 2.009,-2.35c0.787,-0.544 1.594,-0.815 2.424,-0.815c0.744,0 1.339,0.106 1.785,0.319l-0.638,3.198c-0.276,-0.085 -0.531,-0.149 -0.765,-0.192c-0.234,-0.043 -0.521,-0.064 -0.861,-0.064c-0.616,0 -1.265,0.24 -1.945,0.72c-0.68,0.479 -1.265,1.316 -1.754,2.51l0,9.592l-3.666,0Zm17.409,0.384c-0.914,0 -1.684,-0.139 -2.311,-0.416c-0.627,-0.277 -1.138,-0.666 -1.531,-1.167c-0.393,-0.501 -0.68,-1.098 -0.861,-1.79c-0.181,-0.693 -0.271,-1.466 -0.271,-2.319l0,-7.482l-2.232,0l0,-2.75l2.423,-0.16l0.447,-4.284l3.061,0l0,4.284l3.986,0l0,2.91l-3.986,0l0,7.482c0,1.834 0.733,2.75 2.2,2.75c0.276,0 0.558,-0.032 0.845,-0.096c0.287,-0.064 0.547,-0.149 0.781,-0.255l0.638,2.717c-0.425,0.15 -0.909,0.283 -1.451,0.4c-0.542,0.117 -1.121,0.176 -1.738,0.176Z" style="fill:#2e2b2c;"/><g><g><path id="vue.js-frankfurt-diecut-a" d="M95.103,44.576l-8.018,-4.325c-0.148,-3.299 -0.853,-6.452 -2.024,-9.368l0,-23.596c0,-1.263 -1.021,-2.287 -2.281,-2.287c-0.604,0 -1.184,0.24 -1.612,0.669l-10.141,10.15c-9.84,-5.102 -25.809,-5.102 -35.78,0.045l-10.109,-10.119c-0.428,-0.428 -1.008,-0.669 -1.612,-0.669c-1.26,0 -2.281,1.024 -2.281,2.287l0,23.67c-1.135,2.874 -1.819,5.976 -1.964,9.219l-8.281,4.466l6.279,3.387l-4.185,4.707l5.951,0.868l-4.851,6.52l7.571,0.436c0.51,1.134 1.591,2.802 2.65,4.326c2.279,2.566 3.418,4.648 3.418,6.245c0,7.894 3.523,13.793 11.397,13.793l27.894,0c7.874,0 11.408,-5.899 11.408,-13.793c0,-1.641 0.879,-3.701 2.636,-6.178c0,-0.067 3.047,-3.538 3.423,-4.372l7.476,-0.43l-4.971,-6.682l5.997,-0.876l-4.212,-4.737l6.222,-3.356Z" style="fill:#2e2b2c;fill-rule:nonzero;"/><clipPath id="_clip1"><path id="vue.js-frankfurt-diecut-a1" serif:id="vue.js-frankfurt-diecut-a" d="M95.103,44.576l-8.018,-4.325c-0.148,-3.299 -0.853,-6.452 -2.024,-9.368l0,-23.596c0,-1.263 -1.021,-2.287 -2.281,-2.287c-0.604,0 -1.184,0.24 -1.612,0.669l-10.141,10.15c-9.84,-5.102 -25.809,-5.102 -35.78,0.045l-10.109,-10.119c-0.428,-0.428 -1.008,-0.669 -1.612,-0.669c-1.26,0 -2.281,1.024 -2.281,2.287l0,23.67c-1.135,2.874 -1.819,5.976 -1.964,9.219l-8.281,4.466l6.279,3.387l-4.185,4.707l5.951,0.868l-4.851,6.52l7.571,0.436c0.51,1.134 1.591,2.802 2.65,4.326c2.279,2.566 3.418,4.648 3.418,6.245c0,7.894 3.523,13.793 11.397,13.793l27.894,0c7.874,0 11.408,-5.899 11.408,-13.793c0,-1.641 0.879,-3.701 2.636,-6.178c0,-0.067 3.047,-3.538 3.423,-4.372l7.476,-0.43l-4.971,-6.682l5.997,-0.876l-4.212,-4.737l6.222,-3.356Z" clip-rule="nonzero"/></clipPath><g clip-path="url(#_clip1)"><g><path d="M57.619,2l15.381,0l-20,34.931l-20,-34.931l15.381,0l4.619,8.067l4.619,-8.067Z" style="fill:#3fba83;fill-rule:nonzero;"/><path d="M57.619,2l7.381,0l-12,20.958l-12,-20.958l7.381,0l4.619,8.067l4.619,-8.067Z" style="fill:#344a5e;fill-rule:nonzero;"/></g><g><path d="M61.083,60.5l26.917,0l-35,61.877l-35,-61.877l26.917,0l8.083,14.29l8.083,-14.29Z" style="fill:#3fba83;fill-rule:nonzero;"/><path d="M61.083,60.5l12.917,0l-21,37.125l-21,-37.125l12.917,0l8.083,14.29l8.083,-14.29Z" style="fill:#344a5e;fill-rule:nonzero;"/></g></g></g><path d="M28.916,66.909c2.975,0.538 4.708,0.416 8.699,0.416c5.113,0 8.802,0.811 11.068,2.433c2.265,1.622 4.517,3.792 4.756,6.699c0.397,-2.907 2.217,-5.024 4.504,-6.667c2.286,-1.643 5.986,-2.465 11.099,-2.465c4.157,0 4.271,0.185 8.979,-0.416c1.402,-0.179 2.838,-0.965 3.979,-1.823c-1.583,2.547 -1.989,3.667 -2.694,6.408c-0.422,0.239 -0.894,0.431 -1.316,0.569c-2.099,0.683 -5.082,1.024 -8.948,1.024c-3.991,0 -7.036,0.139 -9.135,0.416c-2.1,0.278 -3.596,0.758 -4.49,1.441c-0.637,0.486 -0.998,1.135 -1.198,1.947c-0.081,0.327 -1.456,0.39 -1.541,0.087c-0.239,-0.852 -0.717,-1.53 -1.376,-2.034c-0.894,-0.683 -2.391,-1.163 -4.49,-1.441c-2.099,-0.277 -5.165,-0.416 -9.197,-0.416c-3.7,0 -6.579,-0.341 -8.636,-1.024c-0.543,-0.18 -1.037,-0.36 -1.451,-0.526c-0.313,-1.673 -0.994,-3.102 -3.528,-6.537c1.194,0.97 2.933,1.55 4.916,1.909Z" style="fill:#fff;"/><path d="M52.6,73.777l0,-2.053c0,-0.4 0.308,-0.724 0.686,-0.724c0.379,0 0.686,0.324 0.686,0.724l0,2.053l1.375,-1.452c0.268,-0.282 0.702,-0.282 0.97,0c0.268,0.283 0.268,0.741 0,1.024l-1.375,1.452l1.945,0c0.378,0 0.686,0.324 0.686,0.724c0,0.4 -0.308,0.724 -0.686,0.724l-1.945,0l1.375,1.452c0.268,0.282 0.268,0.741 0,1.023c-0.268,0.283 -0.702,0.283 -0.97,0l-1.375,-1.451l0,2.053c0,0.4 -0.307,0.724 -0.686,0.724c-0.378,0 -0.686,-0.324 -0.686,-0.724l0,-2.053l-1.375,1.451c-0.268,0.283 -0.702,0.283 -0.97,0c-0.267,-0.282 -0.267,-0.741 0,-1.023l1.376,-1.452l-1.945,0c-0.379,0 -0.686,-0.324 -0.686,-0.724c0,-0.4 0.307,-0.724 0.686,-0.724l1.945,0l-1.376,-1.452c-0.267,-0.283 -0.267,-0.741 0,-1.024c0.268,-0.282 0.702,-0.282 0.97,0l1.375,1.452Z" style="fill:#41b883;"/><ellipse cx="41.471" cy="39.872" rx="9.959" ry="10.256" style="fill:#fff;"/><ellipse cx="65.657" cy="39.872" rx="9.959" ry="10.256" style="fill:#fff;"/><ellipse cx="44.175" cy="40.604" rx="4.979" ry="5.128" style="fill:#2e2b2c;"/><ellipse cx="62.954" cy="40.604" rx="4.979" ry="5.128" style="fill:#2e2b2c;"/><path d="M51.349,51.154l4.42,0c0.765,0 1.385,0.582 1.385,1.299c0,0.39 -0.187,0.76 -0.509,1.006l-1.81,1.388c-0.699,0.537 -1.702,0.547 -2.413,0.024l-1.92,-1.412c-0.598,-0.439 -0.703,-1.25 -0.235,-1.811c0.261,-0.312 0.66,-0.494 1.082,-0.494Z" style="fill:#ff8282;"/></g></g></svg>